Muli-Regular-Italic.ufo
<glyph name="quotedbl" format="1">
  <advance width="821"/>
  <unicode hex="0022"/>
  <outline>
    <contour>
      <point x="279" y="946" type="line"/>
      <point x="289" y="1456" type="line"/>
      <point x="472" y="1456" type="line"/>
      <point x="360" y="946" type="line"/>
    </contour>
    <contour>
      <point x="582" y="946" type="line"/>
      <point x="592" y="1456" type="line"/>
      <point x="776" y="1456" type="line"/>
      <point x="662" y="946" type="line"/>
    </contour>
  </outline>
</glyph>
<glyph name="numbersign" format="1">
  <advance width="1324"/>
  <unicode hex="0023"/>
  <outline>
    <contour>
      <point x="250" y="60" type="line"/>
      <point x="371" y="485" type="line"/>
      <point x="119" y="485" type="line"/>
      <point x="141" y="611" type="line"/>
      <point x="406" y="611" type="line"/>
      <point x="430" y="704"/>
      <point x="455" y="793"/>
      <point x="480" y="886" type="curve"/>
      <point x="219" y="886" type="line"/>
      <point x="243" y="1010" type="line"/>
      <point x="513" y="1010" type="line"/>
      <point x="627" y="1420" type="line"/>
      <point x="773" y="1420" type="line"/>
      <point x="661" y="1010" type="line"/>
      <point x="922" y="1010" type="line"/>
      <point x="1033" y="1420" type="line"/>
      <point x="1179" y="1420" type="line"/>
      <point x="1066" y="1010" type="line"/>
      <point x="1307" y="1010" type="line"/>
      <point x="1282" y="886" type="line"/>
      <point x="1032" y="886" type="line"/>
      <point x="957" y="611" type="line"/>
      <point x="1209" y="611" type="line"/>
      <point x="1184" y="485" type="line"/>
      <point x="924" y="485" type="line"/>
      <point x="804" y="60" type="line"/>
      <point x="659" y="60" type="line"/>
      <point x="776" y="485" type="line"/>
      <point x="515" y="485" type="line"/>
      <point x="396" y="60" type="line"/>
    </contour>
    <contour>
      <point x="548" y="611" type="line"/>
      <point x="812" y="611" type="line"/>
      <point x="887" y="886" type="line"/>
      <point x="626" y="886" type="line"/>
    </contour>
  </outline>
</glyph>
<glyph name="ampersand" format="1">
  <advance width="1501.00226577"/>
  <unicode hex="0026"/>
  <outline>
    <contour>
      <point x="632.176336175" y="-27" type="curve" smooth="yes"/>
      <point x="359.176336175" y="-27"/>
      <point x="162.176336175" y="131"/>
      <point x="187.176336175" y="402" type="curve" smooth="yes"/>
      <point x="208.176336175" y="625"/>
      <point x="332.176336175" y="724"/>
      <point x="531.176336175" y="846" type="curve"/>
      <point x="450.176336175" y="950"/>
      <point x="365.176336175" y="1040"/>
      <point x="377.176336175" y="1179" type="curve" smooth="yes"/>
      <point x="394.176336175" y="1371"/>
      <point x="583.176336175" y="1473"/>
      <point x="758.176336175" y="1473" type="curve" smooth="yes"/>
      <point x="922.176336175" y="1473"/>
      <point x="1092.17633617" y="1381"/>
      <point x="1074.17633617" y="1186" type="curve" smooth="yes"/>
      <point x="1060.17633617" y="1027"/>
      <point x="958.176336175" y="934"/>
      <point x="743.176336175" y="807" type="curve"/>
      <point x="1112.17633617" y="381" type="line"/>
      <point x="1203.17633617" y="509"/>
      <point x="1256.17633617" y="717"/>
      <point x="1271.17633617" y="884" type="curve"/>
      <point x="1420.17633617" y="863" type="line"/>
      <point x="1394.17633617" y="660"/>
      <point x="1334.17633617" y="425"/>
      <point x="1214.17633617" y="269" type="curve"/>
      <point x="1252.17633617" y="228"/>
      <point x="1357.17633617" y="117"/>
      <point x="1502.17633617" y="82" type="curve"/>
      <point x="1377.17633617" y="-16" type="line"/>
      <point x="1269.17633617" y="2"/>
      <point x="1147.17633617" y="133"/>
      <point x="1114.17633617" y="169" type="curve"/>
      <point x="998.176336175" y="51"/>
      <point x="827.176336175" y="-27"/>
    </contour>
    <contour>
      <point x="642.176336175" y="109" type="curve" smooth="yes"/>
      <point x="802.176336175" y="109"/>
      <point x="921.176336175" y="176"/>
      <point x="1019.17633617" y="274" type="curve"/>
      <point x="617.176336175" y="740" type="line"/>
      <point x="470.176336175" y="650"/>
      <point x="364.176336175" y="576"/>
      <point x="349.176336175" y="404" type="curve" smooth="yes"/>
      <point x="333.176336175" y="237"/>
      <point x="456.176336175" y="109"/>
    </contour>
    <contour>
      <point x="656.176336175" y="908" type="curve"/>
      <point x="809.176336175" y="997"/>
      <point x="909.176336175" y="1064"/>
      <point x="920.176336175" y="1178" type="curve" smooth="yes"/>
      <point x="930.176336175" y="1294"/>
      <point x="834.176336175" y="1340"/>
      <point x="752.176336175" y="1340" type="curve" smooth="yes"/>
      <point x="657.176336175" y="1340"/>
      <point x="541.176336175" y="1284"/>
      <point x="531.176336175" y="1176" type="curve" smooth="yes"/>
      <point x="522.176336175" y="1075"/>
      <point x="583.176336175" y="990"/>
    </contour>
  </outline>
</glyph>
<glyph name="parenleft" format="1">
  <advance width="616.015720767"/>
  <unicode hex="0028"/>
  <outline>
    <contour>
      <point x="376" y="-204" type="line"/>
      <point x="242" y="33"/>
      <point x="143" y="336"/>
      <point x="170" y="642" type="curve" smooth="yes"/>
      <point x="198" y="961"/>
      <point x="333" y="1242"/>
      <point x="523" y="1506" type="curve"/>
      <point x="671" y="1506" type="line"/>
      <point x="481" y="1240"/>
      <point x="359" y="947"/>
      <point x="333" y="645" type="curve" smooth="yes"/>
      <point x="309" y="365"/>
      <point x="384" y="47"/>
      <point x="522" y="-204" type="curve"/>
    </contour>
  </outline>
</glyph>
<glyph name="zero" format="1">
  <advance width="1218"/>
  <unicode hex="0030"/>
  <outline>
    <contour>
      <point x="636" y="124" type="curve" smooth="yes"/>
      <point x="861" y="124"/>
      <point x="953" y="385"/>
      <point x="983" y="729" type="curve" smooth="yes"/>
      <point x="1014" y="1081"/>
      <point x="965" y="1334"/>
      <point x="741" y="1334" type="curve" smooth="yes"/>
      <point x="512" y="1334"/>
      <point x="404" y="1081"/>
      <point x="373" y="730" type="curve" smooth="yes"/>
      <point x="343" y="386"/>
      <point x="407" y="124"/>
    </contour>
    <contour>
      <point x="620" y="-23" type="curve" smooth="yes"/>
      <point x="291" y="-23"/>
      <point x="158" y="290"/>
      <point x="196" y="730" type="curve" smooth="yes"/>
      <point x="237" y="1196"/>
      <point x="423" y="1483"/>
      <point x="754" y="1483" type="curve" smooth="yes"/>
      <point x="1085" y="1483"/>
      <point x="1207" y="1195"/>
      <point x="1166" y="729" type="curve" smooth="yes"/>
      <point x="1127" y="288"/>
      <point x="953" y="-23"/>
    </contour>
  </outline>
</glyph>
<glyph name="one" format="1">
  <advance width="1218"/>
  <unicode hex="0031"/>
  <outline>
    <contour>
      <point x="330" y="0" type="line"/>
      <point x="343" y="143" type="line"/>
      <point x="602" y="143" type="line"/>
      <point x="700" y="1265" type="line"/>
      <point x="607" y="1214"/>
      <point x="515" y="1173"/>
      <point x="409" y="1133" type="curve"/>
      <point x="423" y="1289" type="line"/>
      <point x="528" y="1325"/>
      <point x="670" y="1401"/>
      <point x="764" y="1456" type="curve"/>
      <point x="889" y="1456" type="line"/>
      <point x="774" y="143" type="line"/>
      <point x="1019" y="143" type="line"/>
      <point x="1006" y="0" type="line"/>
    </contour>
  </outline>
</glyph>
<glyph name="nine" format="1">
  <advance width="1220"/>
  <unicode hex="0039"/>
  <outline>
    <contour>
      <point x="568" y="-24" type="curve" smooth="yes"/>
      <point x="447" y="-24"/>
      <point x="320" y="13"/>
      <point x="197" y="79" type="curve"/>
      <point x="266" y="211" type="line"/>
      <point x="375" y="152"/>
      <point x="476" y="124"/>
      <point x="568" y="124" type="curve" smooth="yes"/>
      <point x="799" y="124"/>
      <point x="962" y="308"/>
      <point x="993" y="657" type="curve" smooth="yes"/>
      <point x="998" y="722" type="line"/>
      <point x="923" y="600"/>
      <point x="805" y="544"/>
      <point x="640" y="544" type="curve" smooth="yes"/>
      <point x="361" y="544"/>
      <point x="217" y="735"/>
      <point x="241" y="1004" type="curve" smooth="yes"/>
      <point x="265" y="1275"/>
      <point x="456" y="1483"/>
      <point x="758" y="1483" type="curve" smooth="yes"/>
      <point x="1084" y="1483"/>
      <point x="1218" y="1231"/>
      <point x="1178" y="774" type="curve" smooth="yes"/>
      <point x="1128" y="203"/>
      <point x="868" y="-24"/>
    </contour>
    <contour>
      <point x="418" y="1010" type="curve" smooth="yes"/>
      <point x="402" y="827"/>
      <point x="468" y="687"/>
      <point x="679" y="687" type="curve" smooth="yes"/>
      <point x="859" y="687"/>
      <point x="994" y="803"/>
      <point x="1010" y="991" type="curve" smooth="yes"/>
      <point x="1025" y="1166"/>
      <point x="947" y="1334"/>
      <point x="737" y="1334" type="curve" smooth="yes"/>
      <point x="551" y="1334"/>
      <point x="434" y="1196"/>
    </contour>
  </outline>
</glyph>
<glyph name="greater" format="1">
  <advance width="1171"/>
  <unicode hex="003E"/>
  <outline>
    <contour>
      <point x="190" y="58" type="line"/>
      <point x="204" y="212" type="line"/>
      <point x="953" y="555" type="line"/>
      <point x="271" y="926" type="line"/>
      <point x="285" y="1078" type="line"/>
      <point x="1137" y="594" type="line"/>
      <point x="1129" y="505" type="line"/>
    </contour>
  </outline>
</glyph>
<glyph name="C" format="1">
  <advance width="1375"/>
  <unicode hex="0043"/>
  <outline>
    <contour>
      <point x="780" y="-23" type="curve" smooth="yes"/>
      <point x="341" y="-6"/>
      <point x="133" y="309"/>
      <point x="168" y="713" type="curve" smooth="yes"/>
      <point x="204" y="1125"/>
      <point x="498" y="1483"/>
      <point x="941" y="1483" type="curve" smooth="yes"/>
      <point x="1122" y="1483"/>
      <point x="1266" y="1437"/>
      <point x="1378" y="1329" type="curve"/>
      <point x="1304" y="1216" type="line"/>
      <point x="1210" y="1292"/>
      <point x="1083" y="1334"/>
      <point x="947" y="1334" type="curve" smooth="yes"/>
      <point x="578" y="1334"/>
      <point x="377" y="1022"/>
      <point x="350" y="712" type="curve" smooth="yes"/>
      <point x="323" y="398"/>
      <point x="454" y="135"/>
      <point x="812" y="125" type="curve" smooth="yes"/>
      <point x="962" y="121"/>
      <point x="1147" y="172"/>
      <point x="1264" y="268" type="curve"/>
      <point x="1309" y="127" type="line"/>
      <point x="1177" y="28"/>
      <point x="991" y="-31"/>
    </contour>
  </outline>
</glyph>
<glyph name="D" format="1">
  <advance width="1507.65866269"/>
  <unicode hex="0044"/>
  <outline>
    <contour>
      <point x="375.0" y="148" type="line"/>
      <point x="630.0" y="148" type="line" smooth="yes"/>
      <point x="1054.0" y="148"/>
      <point x="1253.0" y="387"/>
      <point x="1282.0" y="721" type="curve" smooth="yes"/>
      <point x="1320.0" y="1159"/>
      <point x="1107.0" y="1308"/>
      <point x="635.0" y="1308" type="curve" smooth="yes"/>
      <point x="477.0" y="1308" type="line"/>
    </contour>
    <contour>
      <point x="190.0" y="0" type="line"/>
      <point x="318.0" y="1456" type="line"/>
      <point x="627.0" y="1456" type="line" smooth="yes"/>
      <point x="1148.0" y="1456"/>
      <point x="1515.0" y="1290"/>
      <point x="1465.0" y="724" type="curve" smooth="yes"/>
      <point x="1426.0" y="282"/>
      <point x="1116.0" y="0"/>
      <point x="601.0" y="0" type="curve" smooth="yes"/>
    </contour>
  </outline>
</glyph>
<glyph name="H" format="1">
  <advance width="1525.61650591"/>
  <unicode hex="0048"/>
  <outline>
    <contour>
      <point x="190.0" y="0" type="line"/>
      <point x="318.0" y="1456" type="line"/>
      <point x="490.0" y="1456" type="line"/>
      <point x="434.0" y="822" type="line"/>
      <point x="1236.0" y="822" type="line"/>
      <point x="1292.0" y="1456" type="line"/>
      <point x="1463.0" y="1456" type="line"/>
      <point x="1335.0" y="0" type="line"/>
      <point x="1164.0" y="0" type="line"/>
      <point x="1223.0" y="674" type="line"/>
      <point x="421.0" y="674" type="line"/>
      <point x="362.0" y="0" type="line"/>
    </contour>
  </outline>
</glyph>
<glyph name="K" format="1">
  <advance width="1262.0"/>
  <unicode hex="004B"/>
  <outline>
    <contour>
      <point x="190.0" y="0" type="line"/>
      <point x="318.0" y="1456" type="line"/>
      <point x="490.0" y="1456" type="line"/>
      <point x="431" y="789" type="line"/>
      <point x="1134.0" y="1456" type="line"/>
      <point x="1350.0" y="1456" type="line"/>
      <point x="607" y="745" type="line"/>
      <point x="1276.0" y="0" type="line"/>
      <point x="1040.0" y="0" type="line"/>
      <point x="425" y="691" type="line"/>
      <point x="362.0" y="0" type="line"/>
    </contour>
  </outline>
</glyph>
<glyph name="L" format="1">
  <advance width="1068"/>
  <unicode hex="004C"/>
  <outline>
    <contour>
      <point x="188" y="0" type="line"/>
      <point x="316" y="1456" type="line"/>
      <point x="488" y="1456" type="line"/>
      <point x="373" y="148" type="line"/>
      <point x="1050" y="148" type="line"/>
      <point x="1037" y="0" type="line"/>
    </contour>
  </outline>
</glyph>
<glyph name="M" format="1">
  <advance width="1864.61650591"/>
  <unicode hex="004D"/>
  <outline>
    <contour>
      <point x="190.0" y="0" type="line"/>
      <point x="318.0" y="1456" type="line"/>
      <point x="527.0" y="1456" type="line"/>
      <point x="886.0" y="440" type="line"/>
      <point x="954.0" y="248" type="line"/>
      <point x="1057.0" y="443" type="line"/>
      <point x="1598.0" y="1456" type="line"/>
      <point x="1802.0" y="1456" type="line"/>
      <point x="1674.0" y="0" type="line"/>
      <point x="1506.0" y="0" type="line"/>
      <point x="1610.0" y="1165" type="line"/>
      <point x="1528.0" y="1009" type="line"/>
      <point x="994.0" y="0" type="line"/>
      <point x="876.0" y="0" type="line"/>
      <point x="511.0" y="1037" type="line"/>
      <point x="465.0" y="1182" type="line"/>
      <point x="360.0" y="0" type="line"/>
    </contour>
  </outline>
</glyph>
<glyph name="O" format="1">
  <advance width="1610"/>
  <unicode hex="004F"/>
  <outline>
    <contour>
      <point x="814" y="125" type="curve" smooth="yes"/>
      <point x="1167" y="125"/>
      <point x="1350" y="387"/>
      <point x="1380" y="734" type="curve" smooth="yes"/>
      <point x="1410" y="1073"/>
      <point x="1275" y="1335"/>
      <point x="923" y="1335" type="curve" smooth="yes"/>
      <point x="575" y="1335"/>
      <point x="382" y="1048"/>
      <point x="354" y="725" type="curve" smooth="yes"/>
      <point x="325" y="390"/>
      <point x="465" y="125"/>
    </contour>
    <contour>
      <point x="803" y="-23" type="curve" smooth="yes"/>
      <point x="358" y="-23"/>
      <point x="130" y="271"/>
      <point x="170" y="729" type="curve" smooth="yes"/>
      <point x="208" y="1166"/>
      <point x="488" y="1483"/>
      <point x="943" y="1483" type="curve" smooth="yes"/>
      <point x="1379" y="1483"/>
      <point x="1608" y="1184"/>
      <point x="1568" y="726" type="curve" smooth="yes"/>
      <point x="1530" y="286"/>
      <point x="1252" y="-23"/>
    </contour>
  </outline>
</glyph>
<glyph name="P" format="1">
  <advance width="1240.0"/>
  <unicode hex="0050"/>
  <outline>
    <contour>
      <point x="190.0" y="0" type="line"/>
      <point x="318.0" y="1456" type="line"/>
      <point x="687.0" y="1456" type="line" smooth="yes"/>
      <point x="1027.0" y="1456"/>
      <point x="1289" y="1419"/>
      <point x="1258" y="1060" type="curve" smooth="yes"/>
      <point x="1231" y="756"/>
      <point x="1003" y="662"/>
      <point x="685" y="662" type="curve" smooth="yes"/>
      <point x="421" y="662" type="line"/>
      <point x="362.0" y="0" type="line"/>
    </contour>
    <contour>
      <point x="434" y="811" type="line"/>
      <point x="723" y="811" type="line" smooth="yes"/>
      <point x="933" y="811"/>
      <point x="1073" y="862"/>
      <point x="1090" y="1058" type="curve" smooth="yes"/>
      <point x="1110" y="1291"/>
      <point x="951" y="1308"/>
      <point x="718.0" y="1308" type="curve" smooth="yes"/>
      <point x="477.0" y="1308" type="line"/>
    </contour>
  </outline>
</glyph>
<glyph name="Q" format="1">
  <advance width="1610"/>
  <unicode hex="0051"/>
  <outline>
    <contour>
      <point x="1127" y="-422" type="line"/>
      <point x="1127" y="-422"/>
      <point x="947" y="-233"/>
      <point x="861" y="-9" type="curve"/>
      <point x="1028" y="20" type="line"/>
      <point x="1101" y="-162"/>
      <point x="1249" y="-304"/>
      <point x="1249" y="-304" type="curve"/>
    </contour>
    <component base="O"/>
  </outline>
</glyph>
<glyph name="R" format="1">
  <advance width="1322.0"/>
  <unicode hex="0052"/>
  <outline>
    <contour>
      <point x="190.0" y="0" type="line"/>
      <point x="318.0" y="1456" type="line"/>
      <point x="671" y="1456" type="line" smooth="yes"/>
      <point x="909" y="1456"/>
      <point x="1256" y="1446"/>
      <point x="1223" y="1068" type="curve" smooth="yes"/>
      <point x="1207" y="884"/>
      <point x="1120" y="752"/>
      <point x="928" y="705" type="curve"/>
      <point x="928" y="705"/>
      <point x="1038" y="679"/>
      <point x="1122" y="411" type="curve" smooth="yes"/>
      <point x="1250" y="0" type="line"/>
      <point x="1065" y="0" type="line"/>
      <point x="937" y="419" type="line" smooth="yes"/>
      <point x="882" y="600"/>
      <point x="858" y="652"/>
      <point x="680" y="652" type="curve" smooth="yes"/>
      <point x="419.0" y="652" type="line"/>
      <point x="362.0" y="0" type="line"/>
    </contour>
    <contour>
      <point x="432.0" y="799" type="line"/>
      <point x="695" y="799" type="line" smooth="yes"/>
      <point x="875" y="799"/>
      <point x="1022" y="854"/>
      <point x="1040" y="1058" type="curve" smooth="yes"/>
      <point x="1058" y="1259"/>
      <point x="958" y="1308"/>
      <point x="751" y="1308" type="curve" smooth="yes"/>
      <point x="477.0" y="1308" type="line"/>
    </contour>
  </outline>
</glyph>
<glyph name="V" format="1">
  <advance width="1249.0"/>
  <unicode hex="0056"/>
  <outline>
    <contour>
      <point x="542" y="0" type="line"/>
      <point x="141.383494094" y="1456" type="line"/>
      <point x="326" y="1456" type="line"/>
      <point x="616" y="349" type="line"/>
      <point x="650" y="208" type="line"/>
      <point x="710" y="350" type="line"/>
      <point x="1183.38349409" y="1456" type="line"/>
      <point x="1362.38349409" y="1456" type="line"/>
      <point x="719.383494094" y="0" type="line"/>
    </contour>
  </outline>
</glyph>
<glyph name="X" format="1">
  <advance width="1266.0"/>
  <unicode hex="0058"/>
  <outline>
    <contour>
      <point x="1050" y="0" type="line"/>
      <point x="690" y="607" type="line"/>
      <point x="226.0" y="0" type="line"/>
      <point x="34.0" y="0" type="line"/>
      <point x="595" y="734" type="line"/>
      <point x="173.0" y="1456" type="line"/>
      <point x="372" y="1456" type="line"/>
      <point x="707" y="871" type="line"/>
      <point x="1138.0" y="1456" type="line"/>
      <point x="1328.0" y="1456" type="line"/>
      <point x="797.0" y="745" type="line"/>
      <point x="1242" y="0" type="line"/>
    </contour>
  </outline>
</glyph>
<glyph name="bracketright" format="1">
  <advance width="674"/>
  <unicode hex="005D"/>
  <outline>
    <contour>
      <point x="73" y="-254" type="line"/>
      <point x="84" y="-132" type="line"/>
      <point x="328" y="-132" type="line"/>
      <point x="456" y="1334" type="line"/>
      <point x="211" y="1334" type="line"/>
      <point x="222" y="1456" type="line"/>
      <point x="630" y="1456" type="line"/>
      <point x="480" y="-254" type="line"/>
    </contour>
  </outline>
</glyph>
<glyph name="asciicircum" format="1">
  <advance width="1111"/>
  <unicode hex="005E"/>
  <outline>
    <contour>
      <point x="83" y="574" type="line"/>
      <point x="642" y="1456" type="line"/>
      <point x="743" y="1456" type="line"/>
      <point x="1154" y="574" type="line"/>
      <point x="999" y="574" type="line"/>
      <point x="676" y="1284" type="line"/>
      <point x="239" y="574" type="line"/>
    </contour>
  </outline>
</glyph>
<glyph name="grave" format="1">
  <advance width="593"/>
  <unicode hex="0060"/>
  <outline>
    <contour>
      <point x="384" y="1172" type="line"/>
      <point x="80" y="1492" type="line"/>
      <point x="294" y="1492" type="line"/>
      <point x="513" y="1172" type="line"/>
    </contour>
  </outline>
</glyph>
<glyph name="a" format="1">
  <advance width="1261.84453921"/>
  <unicode hex="0061"/>
  <outline>
    <contour>
      <point x="586.844539207" y="-23" type="curve" smooth="yes"/>
      <point x="242.844539207" y="-23"/>
      <point x="117.844539207" y="247"/>
      <point x="141.844539207" y="524" type="curve" smooth="yes"/>
      <point x="165.844539207" y="802"/>
      <point x="349.844539207" y="1057"/>
      <point x="684.844539207" y="1051" type="curve" smooth="yes"/>
      <point x="892.844539207" y="1047"/>
      <point x="984.844539207" y="906"/>
      <point x="1002.84453921" y="850" type="curve"/>
      <point x="1016.84453921" y="1026" type="line"/>
      <point x="1175.84453921" y="1026" type="line"/>
      <point x="1085.84453921" y="0" type="line"/>
      <point x="922.844539207" y="0" type="line"/>
      <point x="947.844539207" y="202" type="line"/>
      <point x="901.844539207" y="89"/>
      <point x="780.844539207" y="-23"/>
    </contour>
    <contour>
      <point x="672.844539207" y="917" type="curve" smooth="yes"/>
      <point x="452.844539207" y="917"/>
      <point x="329.844539207" y="729"/>
      <point x="310.844539207" y="516" type="curve" smooth="yes"/>
      <point x="292.844539207" y="316"/>
      <point x="362.844539207" y="109"/>
      <point x="612.844539207" y="109" type="curve" smooth="yes"/>
      <point x="816.844539207" y="109"/>
      <point x="944.844539207" y="227"/>
      <point x="971.844539207" y="536" type="curve" smooth="yes"/>
      <point x="992.844539207" y="774"/>
      <point x="890.844539207" y="917"/>
    </contour>
  </outline>
</glyph>
<glyph name="h" format="1">
  <advance width="1250"/>
  <unicode hex="0068"/>
  <outline>
    <contour>
      <point x="161" y="0" type="line"/>
      <point x="291" y="1492" type="line"/>
      <point x="456" y="1492" type="line"/>
      <point x="401" y="859" type="line"/>
      <point x="496" y="1000"/>
      <point x="638" y="1051"/>
      <point x="784" y="1051" type="curve" smooth="yes"/>
      <point x="1007" y="1051"/>
      <point x="1138" y="891"/>
      <point x="1116" y="636" type="curve" smooth="yes"/>
      <point x="1061" y="0" type="line"/>
      <point x="896" y="0" type="line"/>
      <point x="951" y="626" type="line" smooth="yes"/>
      <point x="967" y="805"/>
      <point x="914" y="917"/>
      <point x="749" y="917" type="curve" smooth="yes"/>
      <point x="557" y="917"/>
      <point x="395" y="789"/>
      <point x="377" y="585" type="curve" smooth="yes"/>
      <point x="326" y="0" type="line"/>
    </contour>
  </outline>
</glyph>
<glyph name="i" format="1">
  <advance width="519"/>
  <unicode hex="0069"/>
  <outline>
    <contour>
      <point x="176" y="0" type="line"/>
      <point x="266" y="1026" type="line"/>
      <point x="431" y="1026" type="line"/>
      <point x="341" y="0" type="line"/>
    </contour>
    <contour>
      <point x="298" y="1301" type="line"/>
      <point x="312" y="1456" type="line"/>
      <point x="465" y="1456" type="line"/>
      <point x="451" y="1301" type="line"/>
    </contour>
  </outline>
</glyph>
<glyph name="m" format="1">
  <advance width="1886.76269354"/>
  <unicode hex="006D"/>
  <outline>
    <contour>
      <point x="167.763368778" y="0" type="line"/>
      <point x="234.763368778" y="761" type="line" smooth="yes"/>
      <point x="242.763368778" y="847"/>
      <point x="248.763368778" y="950"/>
      <point x="251.763368778" y="1026" type="curve"/>
      <point x="421" y="1026" type="line"/>
      <point x="403" y="843" type="line"/>
      <point x="483" y="975"/>
      <point x="625" y="1051"/>
      <point x="776" y="1051" type="curve" smooth="yes"/>
      <point x="923" y="1051"/>
      <point x="1033" y="974"/>
      <point x="1062" y="838" type="curve"/>
      <point x="1139" y="984"/>
      <point x="1312" y="1054"/>
      <point x="1467" y="1051" type="curve" smooth="yes"/>
      <point x="1689" y="1046"/>
      <point x="1792" y="895"/>
      <point x="1767" y="620" type="curve" smooth="yes"/>
      <point x="1710.76336878" y="0" type="line"/>
      <point x="1545.76336878" y="0" type="line"/>
      <point x="1595" y="558" type="line" smooth="yes"/>
      <point x="1614" y="779"/>
      <point x="1595" y="917"/>
      <point x="1405.76336878" y="917" type="curve" smooth="yes"/>
      <point x="1235" y="917"/>
      <point x="1094.76336878" y="790"/>
      <point x="1076.76336878" y="587" type="curve" smooth="yes"/>
      <point x="1025.76336878" y="0" type="line"/>
      <point x="860.763368778" y="0" type="line"/>
      <point x="916.763368778" y="635" type="line" smooth="yes"/>
      <point x="931.763368778" y="808"/>
      <point x="882" y="917"/>
      <point x="731" y="917" type="curve" smooth="yes"/>
      <point x="558" y="917"/>
      <point x="398" y="774"/>
      <point x="381" y="571" type="curve" smooth="yes"/>
      <point x="332.763368778" y="0" type="line"/>
    </contour>
  </outline>
</glyph>
<glyph name="n" format="1">
  <advance width="1237.0"/>
  <unicode hex="006E"/>
  <outline>
    <contour>
      <point x="167.763368778" y="0" type="line"/>
      <point x="235.763368778" y="779" type="line" smooth="yes"/>
      <point x="246.763368778" y="902"/>
      <point x="251.763368778" y="1026"/>
      <point x="251.763368778" y="1026" type="curve"/>
      <point x="421" y="1026" type="line"/>
      <point x="403" y="842" type="line"/>
      <point x="481" y="969"/>
      <point x="601" y="1051"/>
      <point x="776" y="1051" type="curve" smooth="yes"/>
      <point x="1075" y="1051"/>
      <point x="1137" y="844"/>
      <point x="1111" y="550" type="curve" smooth="yes"/>
      <point x="1063" y="0" type="line"/>
      <point x="898" y="0" type="line"/>
      <point x="944" y="531" type="line" smooth="yes"/>
      <point x="963" y="754"/>
      <point x="963" y="917"/>
      <point x="735" y="917" type="curve" smooth="yes"/>
      <point x="536" y="917"/>
      <point x="397.0" y="744"/>
      <point x="386.0" y="619" type="curve" smooth="yes"/>
      <point x="332.763368778" y="0" type="line"/>
    </contour>
  </outline>
</glyph>
<glyph name="r" format="1">
  <advance width="825.763368778"/>
  <unicode hex="0072"/>
  <outline>
    <contour>
      <point x="166.763368778" y="0.0" type="line"/>
      <point x="235.0" y="779.0" type="line"/>
      <point x="249.0" y="1026.0" type="line"/>
      <point x="414.0" y="1026.0" type="line"/>
      <point x="404" y="854" type="line"/>
      <point x="475" y="983"/>
      <point x="580.763368778" y="1050.0"/>
      <point x="697.763368778" y="1050.0" type="curve" smooth="yes"/>
      <point x="736.763368778" y="1050.0"/>
      <point x="772.763368778" y="1046.0"/>
      <point x="804.763368778" y="1038.0" type="curve"/>
      <point x="792.763368778" y="883.0" type="line"/>
      <point x="793" y="883"/>
      <point x="746" y="907"/>
      <point x="682" y="907" type="curve" smooth="yes"/>
      <point x="521" y="907"/>
      <point x="399.763368778" y="777.0"/>
      <point x="381.763368778" y="568.0" type="curve" smooth="yes"/>
      <point x="331.763368778" y="0.0" type="line"/>
    </contour>
  </outline>
</glyph>
<glyph name="s" format="1">
  <advance width="969.60835155"/>
  <unicode hex="0073"/>
  <outline>
    <contour>
      <point x="488.454452149" y="-23" type="curve" smooth="yes"/>
      <point x="272.454452149" y="-23"/>
      <point x="143.454452149" y="70"/>
      <point x="116.454452149" y="94" type="curve"/>
      <point x="171.454452149" y="222" type="line"/>
      <point x="216.454452149" y="189"/>
      <point x="338.454452149" y="109"/>
      <point x="484.454452149" y="109" type="curve" smooth="yes"/>
      <point x="589.454452149" y="109"/>
      <point x="716.454452149" y="141"/>
      <point x="727.454452149" y="272" type="curve" smooth="yes"/>
      <point x="738.454452149" y="395"/>
      <point x="591.454452149" y="428"/>
      <point x="446.454452149" y="476" type="curve"/>
      <point x="300.454452149" y="527"/>
      <point x="155.454452149" y="585"/>
      <point x="171.454452149" y="771" type="curve" smooth="yes"/>
      <point x="188.454452149" y="970"/>
      <point x="377.454452149" y="1051"/>
      <point x="561.454452149" y="1051" type="curve" smooth="yes"/>
      <point x="748.454452149" y="1051"/>
      <point x="871.454452149" y="991"/>
      <point x="909.454452149" y="966" type="curve"/>
      <point x="850.454452149" y="847" type="line"/>
      <point x="838.454452149" y="854"/>
      <point x="727.454452149" y="917"/>
      <point x="595.454452149" y="917" type="curve" smooth="yes"/>
      <point x="446.454452149" y="917"/>
      <point x="353.454452149" y="882"/>
      <point x="343.454452149" y="774" type="curve" smooth="yes"/>
      <point x="333.454452149" y="665"/>
      <point x="480.454452149" y="631"/>
      <point x="625.454452149" y="581" type="curve" smooth="yes"/>
      <point x="782.454452149" y="527"/>
      <point x="914.454452149" y="468"/>
      <point x="898.454452149" y="284" type="curve" smooth="yes"/>
      <point x="879.454452149" y="62"/>
      <point x="675.454452149" y="-23"/>
    </contour>
  </outline>
</glyph>
<glyph name="w" format="1">
  <advance width="1592.0"/>
  <unicode hex="0077"/>
  <outline>
    <contour>
      <point x="344" y="0" type="line"/>
      <point x="109" y="1026" type="line"/>
      <point x="278" y="1026" type="line"/>
      <point x="429" y="284" type="line"/>
      <point x="449" y="182" type="line"/>
      <point x="488" y="272" type="line"/>
      <point x="815" y="1026" type="line"/>
      <point x="981" y="1026" type="line"/>
      <point x="1153" y="286" type="line"/>
      <point x="1176" y="182" type="line"/>
      <point x="1216" y="287" type="line"/>
      <point x="1488" y="1026" type="line"/>
      <point x="1657" y="1026" type="line"/>
      <point x="1239" y="0" type="line"/>
      <point x="1079" y="0" type="line"/>
      <point x="910" y="721" type="line"/>
      <point x="877" y="853" type="line"/>
      <point x="819" y="724" type="line"/>
      <point x="506" y="0" type="line"/>
    </contour>
  </outline>
</glyph>
<glyph name="yen" format="1">
  <advance width="1218"/>
  <unicode hex="00A5"/>
  <outline>
    <contour>
      <point x="1023" y="253" type="line"/>
      <point x="215" y="253" type="line"/>
      <point x="227" y="385" type="line"/>
      <point x="583" y="385" type="line"/>
      <point x="598" y="552" type="line"/>
      <point x="242" y="552" type="line"/>
      <point x="253" y="686" type="line"/>
      <point x="1061" y="686" type="line"/>
      <point x="1050" y="552" type="line"/>
      <point x="710" y="552" type="line"/>
      <point x="695" y="385" type="line"/>
      <point x="1035" y="385" type="line"/>
    </contour>
    <component base="Y" xOffset="18"/>
  </outline>
</glyph>
<glyph name="brokenbar" format="1">
  <advance width="500"/>
  <unicode hex="00A6"/>
  <outline>
    <contour>
      <point x="127" y="-491" type="line"/>
      <point x="204" y="393" type="line"/>
      <point x="361" y="393" type="line"/>
      <point x="284" y="-491" type="line"/>
    </contour>
    <contour>
      <point x="229" y="677" type="line"/>
      <point x="305" y="1545" type="line"/>
      <point x="462" y="1545" type="line"/>
      <point x="386" y="677" type="line"/>
    </contour>
  </outline>
</glyph>
<glyph name="dieresis" format="1">
  <advance width="743"/>
  <unicode hex="00A8"/>
  <outline>
    <contour>
      <point x="227" y="1183" type="line"/>
      <point x="241" y="1346" type="line"/>
      <point x="405" y="1346" type="line"/>
      <point x="391" y="1183" type="line"/>
    </contour>
    <contour>
      <point x="559" y="1183" type="line"/>
      <point x="573" y="1346" type="line"/>
      <point x="737" y="1346" type="line"/>
      <point x="723" y="1183" type="line"/>
    </contour>
  </outline>
</glyph>
<glyph name="guillemotleft" format="1">
  <advance width="1156"/>
  <unicode hex="00AB"/>
  <outline>
    <contour>
      <point x="482" y="171" type="line"/>
      <point x="246" y="541" type="line"/>
      <point x="554" y="914" type="line"/>
      <point x="714" y="914" type="line"/>
      <point x="416" y="541" type="line"/>
      <point x="639" y="171" type="line"/>
    </contour>
    <contour>
      <point x="852" y="171" type="line"/>
      <point x="616" y="541" type="line"/>
      <point x="923" y="914" type="line"/>
      <point x="1082" y="914" type="line"/>
      <point x="786" y="541" type="line"/>
      <point x="1009" y="171" type="line"/>
    </contour>
  </outline>
</glyph>
<glyph name="logicalnot" format="1">
  <advance width="1458"/>
  <unicode hex="00AC"/>
  <outline>
    <contour>
      <point x="1074" y="238" type="line"/>
      <point x="1110" y="659" type="line"/>
      <point x="212" y="659" type="line"/>
      <point x="224" y="798" type="line"/>
      <point x="1272" y="798" type="line"/>
      <point x="1224" y="238" type="line"/>
    </contour>
  </outline>
</glyph>
<glyph name="macron" format="1">
  <advance width="728"/>
  <unicode hex="00AF"/>
  <outline>
    <contour>
      <point x="176" y="1183" type="line"/>
      <point x="187" y="1317" type="line"/>
      <point x="758" y="1317" type="line"/>
      <point x="747" y="1183" type="line"/>
    </contour>
  </outline>
</glyph>
<glyph name="twosuperior" format="1">
  <advance width="941.933024493"/>
  <unicode hex="00B2"/>
  <outline>
    <contour>
      <point x="266" y="640" type="line"/>
      <point x="276" y="751" type="line"/>
      <point x="539" y="975"/>
      <point x="728" y="1136"/>
      <point x="738" y="1247" type="curve" smooth="yes"/>
      <point x="744" y="1314"/>
      <point x="694" y="1359"/>
      <point x="607" y="1359" type="curve" smooth="yes"/>
      <point x="524" y="1359"/>
      <point x="456" y="1309"/>
      <point x="411" y="1228" type="curve"/>
      <point x="333" y="1306" type="line"/>
      <point x="388" y="1414"/>
      <point x="497" y="1476"/>
      <point x="624" y="1476" type="curve" smooth="yes"/>
      <point x="774" y="1476"/>
      <point x="879" y="1388"/>
      <point x="867" y="1249" type="curve" smooth="yes"/>
      <point x="852" y="1077"/>
      <point x="678" y="933"/>
      <point x="459" y="758" type="curve"/>
      <point x="823" y="758" type="line"/>
      <point x="812" y="640" type="line"/>
    </contour>
  </outline>
</glyph>
<glyph name="threesuperior" format="1">
  <advance width="954.004153482"/>
  <unicode hex="00B3"/>
  <outline>
    <contour>
      <point x="535" y="621" type="curve" smooth="yes"/>
      <point x="439" y="621"/>
      <point x="345" y="654"/>
      <point x="287" y="718" type="curve"/>
      <point x="355" y="814" type="line"/>
      <point x="406" y="763"/>
      <point x="477" y="736"/>
      <point x="540" y="736" type="curve" smooth="yes"/>
      <point x="636" y="736"/>
      <point x="709" y="786"/>
      <point x="717" y="872" type="curve" smooth="yes"/>
      <point x="726" y="970"/>
      <point x="645" y="1006"/>
      <point x="513" y="1006" type="curve" smooth="yes"/>
      <point x="457" y="1006" type="line"/>
      <point x="468" y="1124" type="line"/>
      <point x="517" y="1124" type="line" smooth="yes"/>
      <point x="632" y="1124"/>
      <point x="716" y="1154"/>
      <point x="724" y="1245" type="curve" smooth="yes"/>
      <point x="731" y="1323"/>
      <point x="685" y="1357"/>
      <point x="603" y="1357" type="curve" smooth="yes"/>
      <point x="532" y="1357"/>
      <point x="455" y="1326"/>
      <point x="394" y="1279" type="curve"/>
      <point x="345" y="1375" type="line"/>
      <point x="411" y="1435"/>
      <point x="520" y="1476"/>
      <point x="615" y="1476" type="curve" smooth="yes"/>
      <point x="755" y="1476"/>
      <point x="870" y="1394"/>
      <point x="857" y="1248" type="curve" smooth="yes"/>
      <point x="850" y="1170"/>
      <point x="806" y="1094"/>
      <point x="685" y="1067" type="curve"/>
      <point x="802" y="1041"/>
      <point x="853" y="965"/>
      <point x="845" y="869" type="curve" smooth="yes"/>
      <point x="832" y="716"/>
      <point x="696" y="621"/>
    </contour>
  </outline>
</glyph>
<glyph name="paragraph" format="1">
  <advance width="1214"/>
  <unicode hex="00B6"/>
  <outline>
    <contour>
      <point x="434" y="-143" type="line"/>
      <point x="516" y="791" type="line"/>
      <point x="335" y="794"/>
      <point x="193" y="930"/>
      <point x="211" y="1135" type="curve" smooth="yes"/>
      <point x="233" y="1386"/>
      <point x="478" y="1456"/>
      <point x="755" y="1456" type="curve" smooth="yes"/>
      <point x="1141" y="1456" type="line"/>
      <point x="1130" y="1332" type="line"/>
      <point x="1043" y="1332" type="line"/>
      <point x="914" y="-143" type="line"/>
      <point x="785" y="-143" type="line"/>
      <point x="914" y="1332" type="line"/>
      <point x="706" y="1332" type="line"/>
      <point x="577" y="-143" type="line"/>
    </contour>
  </outline>
</glyph>
<glyph name="Eth" format="1">
  <advance width="1505"/>
  <unicode hex="00D0"/>
  <outline>
    <contour>
      <point x="108" y="805" type="line"/>
      <point x="675" y="805" type="line"/>
      <point x="663" y="670" type="line"/>
      <point x="96" y="670" type="line"/>
    </contour>
    <component base="D"/>
  </outline>
</glyph>
<glyph name="oslash" format="1">
  <advance width="1243.82542305"/>
  <unicode hex="00F8"/>
  <outline>
    <contour>
      <point x="335" y="-263" type="line"/>
      <point x="261" y="-231" type="line"/>
      <point x="1029" y="1275" type="line"/>
      <point x="1107" y="1243" type="line"/>
    </contour>
    <component base="o"/>
  </outline>
</glyph>
<glyph name="Eng" format="1">
  <advance width="1554"/>
  <unicode hex="014A"/>
  <outline>
    <contour>
      <point x="500" y="-345" type="curve"/>
      <point x="531" y="-207" type="line"/>
      <point x="675" y="-246"/>
      <point x="788" y="-265"/>
      <point x="878" y="-265" type="curve" smooth="yes"/>
      <point x="1084" y="-265"/>
      <point x="1161" y="-167"/>
      <point x="1192" y="13" type="curve" smooth="yes"/>
      <point x="1194" y="22"/>
      <point x="1195" y="32"/>
      <point x="1196" y="41" type="curve"/>
      <point x="527" y="1093" type="line"/>
      <point x="465" y="1209" type="line"/>
      <point x="360" y="0" type="line"/>
      <point x="188" y="0" type="line"/>
      <point x="315" y="1456" type="line"/>
      <point x="511" y="1456" type="line"/>
      <point x="1153" y="418" type="line"/>
      <point x="1221" y="299" type="line"/>
      <point x="1322" y="1456" type="line"/>
      <point x="1493" y="1456" type="line"/>
      <point x="1378" y="137" type="line" smooth="yes"/>
      <point x="1349" y="-197"/>
      <point x="1228" y="-395"/>
      <point x="870" y="-395" type="curve" smooth="yes"/>
      <point x="768" y="-395"/>
      <point x="645" y="-379"/>
    </contour>
  </outline>
</glyph>
<glyph name="OE" format="1">
  <advance width="2099"/>
  <unicode hex="0152"/>
  <outline>
    <contour>
      <point x="763" y="-23" type="curve" smooth="yes"/>
      <point x="318" y="-23"/>
      <point x="74" y="271"/>
      <point x="114" y="729" type="curve" smooth="yes"/>
      <point x="152" y="1166"/>
      <point x="448" y="1483"/>
      <point x="903" y="1483" type="curve" smooth="yes"/>
      <point x="1020" y="1483"/>
      <point x="1122" y="1446"/>
      <point x="1208" y="1381" type="curve"/>
      <point x="1215" y="1456" type="line"/>
      <point x="2018" y="1456" type="line"/>
      <point x="2005" y="1308" type="line"/>
      <point x="1374" y="1308" type="line"/>
      <point x="1331" y="820" type="line"/>
      <point x="1924" y="820" type="line"/>
      <point x="1911" y="672" type="line"/>
      <point x="1318" y="672" type="line"/>
      <point x="1272" y="148" type="line"/>
      <point x="1933" y="148" type="line"/>
      <point x="1920" y="0" type="line"/>
      <point x="1087" y="0" type="line"/>
      <point x="1096" y="105" type="line"/>
      <point x="996" y="23"/>
      <point x="884" y="-23"/>
    </contour>
    <contour>
      <point x="774" y="125" type="curve" smooth="yes"/>
      <point x="907" y="125"/>
      <point x="1019" y="177"/>
      <point x="1110" y="265" type="curve"/>
      <point x="1194" y="1219" type="line"/>
      <point x="1118" y="1292"/>
      <point x="1015" y="1335"/>
      <point x="883" y="1335" type="curve" smooth="yes"/>
      <point x="535" y="1335"/>
      <point x="326" y="1048"/>
      <point x="298" y="725" type="curve" smooth="yes"/>
      <point x="269" y="390"/>
      <point x="425" y="125"/>
    </contour>
  </outline>
</glyph>
<glyph name="florin" format="1">
  <advance width="1047"/>
  <unicode hex="0192"/>
  <outline>
    <contour>
      <point x="100" y="-293" type="curve" smooth="yes"/>
      <point x="72" y="-293"/>
      <point x="37" y="-288"/>
      <point x="-3" y="-277" type="curve"/>
      <point x="21" y="-139" type="line"/>
      <point x="50" y="-150"/>
      <point x="76" y="-155"/>
      <point x="98" y="-155" type="curve" smooth="yes"/>
      <point x="196" y="-155"/>
      <point x="255" y="-64"/>
      <point x="286" y="46" type="curve" smooth="yes"/>
      <point x="509" y="842" type="line"/>
      <point x="354" y="842" type="line"/>
      <point x="376" y="982" type="line"/>
      <point x="545" y="982" type="line"/>
      <point x="581" y="1133" type="line" smooth="yes"/>
      <point x="624" y="1312"/>
      <point x="709" y="1475"/>
      <point x="942" y="1475" type="curve" smooth="yes"/>
      <point x="986" y="1475"/>
      <point x="1036" y="1468"/>
      <point x="1084" y="1456" type="curve"/>
      <point x="1063" y="1311" type="line"/>
      <point x="1024" y="1327"/>
      <point x="987" y="1333"/>
      <point x="956" y="1333" type="curve" smooth="yes"/>
      <point x="840" y="1333"/>
      <point x="796" y="1277"/>
      <point x="769" y="1178" type="curve" smooth="yes"/>
      <point x="716" y="982" type="line"/>
      <point x="916" y="982" type="line"/>
      <point x="894" y="842" type="line"/>
      <point x="681" y="842" type="line"/>
      <point x="494" y="159" type="line" smooth="yes"/>
      <point x="429" y="-79"/>
      <point x="345" y="-293"/>
    </contour>
  </outline>
</glyph>
<glyph name="ogonek" format="1">
  <advance width="508"/>
  <unicode hex="02DB"/>
  <outline>
    <contour>
      <point x="248" y="-390" type="curve" smooth="yes"/>
      <point x="126" y="-390"/>
      <point x="36" y="-331"/>
      <point x="45" y="-225" type="curve" smooth="yes"/>
      <point x="54" y="-123"/>
      <point x="167" y="-42"/>
      <point x="281" y="12" type="curve"/>
      <point x="409" y="0" type="line"/>
      <point x="286" y="-71"/>
      <point x="194" y="-136"/>
      <point x="188" y="-199" type="curve" smooth="yes"/>
      <point x="184" y="-249"/>
      <point x="233" y="-281"/>
      <point x="281" y="-281" type="curve" smooth="yes"/>
      <point x="342" y="-281"/>
      <point x="381" y="-271"/>
      <point x="438" y="-250" type="curve"/>
      <point x="428" y="-361" type="line"/>
      <point x="387" y="-377"/>
      <point x="308" y="-390"/>
    </contour>
  </outline>
</glyph>
<glyph name="endash" format="1">
  <advance width="1085"/>
  <unicode hex="2013"/>
  <outline>
    <contour>
      <point x="28" y="489" type="line"/>
      <point x="40" y="626" type="line"/>
      <point x="1130" y="626" type="line"/>
      <point x="1118" y="489" type="line"/>
    </contour>
  </outline>
</glyph>
<glyph name="uni2015" format="1">
  <advance width="4096"/>
  <unicode hex="2015"/>
  <outline>
    <contour>
      <point x="58" y="489" type="line"/>
      <point x="70" y="626" type="line"/>
      <point x="4038" y="626" type="line"/>
      <point x="4026" y="489" type="line"/>
    </contour>
  </outline>
</glyph>
<glyph name="quotedblleft" format="1">
  <advance width="1024"/>
  <unicode hex="201C"/>
  <outline>
    <contour>
      <point x="270" y="1019" type="line"/>
      <point x="462" y="1456" type="line"/>
      <point x="595" y="1456" type="line"/>
      <point x="452" y="1019" type="line"/>
    </contour>
    <contour>
      <point x="619" y="1019" type="line"/>
      <point x="811" y="1456" type="line"/>
      <point x="944" y="1456" type="line"/>
      <point x="802" y="1019" type="line"/>
    </contour>
  </outline>
</glyph>
<glyph name="quotedblright" format="1">
  <advance width="1024"/>
  <unicode hex="201D"/>
  <outline>
    <contour>
      <point x="280" y="1019" type="line"/>
      <point x="422" y="1456" type="line"/>
      <point x="604" y="1456" type="line"/>
      <point x="413" y="1019" type="line"/>
    </contour>
    <contour>
      <point x="606" y="1019" type="line"/>
      <point x="749" y="1456" type="line"/>
      <point x="931" y="1456" type="line"/>
      <point x="739" y="1019" type="line"/>
    </contour>
  </outline>
</glyph>
<glyph name="daggerdbl" format="1">
  <advance width="1022"/>
  <unicode hex="2021"/>
  <outline>
    <contour>
      <point x="435" y="0" type="line"/>
      <point x="486" y="322" type="line"/>
      <point x="129" y="322" type="line"/>
      <point x="140" y="449" type="line"/>
      <point x="497" y="449" type="line"/>
      <point x="543" y="987" type="line"/>
      <point x="192" y="987" type="line"/>
      <point x="203" y="1119" type="line"/>
      <point x="560" y="1119" type="line"/>
      <point x="564" y="1455" type="line"/>
      <point x="735" y="1455" type="line"/>
      <point x="684" y="1119" type="line"/>
      <point x="1015" y="1119" type="line"/>
      <point x="1004" y="987" type="line"/>
      <point x="666" y="987" type="line"/>
      <point x="620" y="449" type="line"/>
      <point x="951" y="449" type="line"/>
      <point x="940" y="322" type="line"/>
      <point x="609" y="322" type="line"/>
      <point x="606" y="0" type="line"/>
    </contour>
  </outline>
</glyph>
<glyph name="bullet" format="1">
  <advance width="989.388263998"/>
  <unicode hex="2022"/>
  <outline>
    <contour>
      <point x="526.717589437" y="385" type="curve" smooth="yes"/>
      <point x="339.717589437" y="385"/>
      <point x="202.717589437" y="526"/>
      <point x="217.717589437" y="694" type="curve" smooth="yes"/>
      <point x="232.717589437" y="866"/>
      <point x="403.717589437" y="1010"/>
      <point x="585.717589437" y="1010" type="curve" smooth="yes"/>
      <point x="769.717589437" y="1010"/>
      <point x="908.717589437" y="870"/>
      <point x="893.717589437" y="701" type="curve" smooth="yes"/>
      <point x="878.717589437" y="529"/>
      <point x="710.717589437" y="385"/>
    </contour>
  </outline>
</glyph>
<glyph name="ellipsis" format="1">
  <advance width="1620"/>
  <unicode hex="2026"/>
  <outline>
    <contour>
      <point x="150" y="0" type="line"/>
      <point x="168" y="210" type="line"/>
      <point x="385" y="210" type="line"/>
      <point x="367" y="0" type="line"/>
    </contour>
    <contour>
      <point x="690" y="0" type="line"/>
      <point x="708" y="210" type="line"/>
      <point x="925" y="210" type="line"/>
      <point x="907" y="0" type="line"/>
    </contour>
    <contour>
      <point x="1230" y="0" type="line"/>
      <point x="1248" y="210" type="line"/>
      <point x="1465" y="210" type="line"/>
      <point x="1447" y="0" type="line"/>
    </contour>
  </outline>
</glyph>
<glyph name="guilsinglleft" format="1">
  <advance width="642"/>
  <unicode hex="2039"/>
  <outline>
    <contour>
      <point x="354" y="171" type="line"/>
      <point x="118" y="541" type="line"/>
      <point x="425" y="914" type="line"/>
      <point x="584" y="914" type="line"/>
      <point x="288" y="541" type="line"/>
      <point x="510" y="171" type="line"/>
    </contour>
  </outline>
</glyph>
<glyph name="radical" format="1">
  <advance width="1314"/>
  <unicode hex="221A"/>
  <outline>
    <contour>
      <point x="534" y="-153" type="line"/>
      <point x="276" y="690" type="line"/>
      <point x="102" y="662" type="line"/>
      <point x="92" y="774" type="line"/>
      <point x="391" y="825" type="line"/>
      <point x="609" y="41" type="line"/>
      <point x="1159" y="1596" type="line"/>
      <point x="1289" y="1596" type="line"/>
      <point x="669" y="-153" type="line"/>
    </contour>
  </outline>
</glyph>
<glyph name="integral" format="1">
  <advance width="774"/>
  <unicode hex="222B"/>
  <outline>
    <contour>
      <point x="158" y="-399" type="curve" smooth="yes"/>
      <point x="102" y="-399"/>
      <point x="72" y="-390"/>
      <point x="24" y="-378" type="curve"/>
      <point x="33" y="-249" type="line"/>
      <point x="59" y="-260"/>
      <point x="103" y="-264"/>
      <point x="142" y="-264" type="curve" smooth="yes"/>
      <point x="278" y="-264"/>
      <point x="310" y="-188"/>
      <point x="322" y="-47" type="curve" smooth="yes"/>
      <point x="436" y="1255" type="line" smooth="yes"/>
      <point x="455" y="1471"/>
      <point x="541" y="1631"/>
      <point x="768" y="1631" type="curve" smooth="yes"/>
      <point x="824" y="1631"/>
      <point x="854" y="1622"/>
      <point x="902" y="1610" type="curve"/>
      <point x="893" y="1481" type="line"/>
      <point x="867" y="1492"/>
      <point x="823" y="1496"/>
      <point x="784" y="1496" type="curve" smooth="yes"/>
      <point x="648" y="1496"/>
      <point x="614" y="1420"/>
      <point x="602" y="1279" type="curve" smooth="yes"/>
      <point x="488" y="-23" type="line" smooth="yes"/>
      <point x="469" y="-239"/>
      <point x="385" y="-399"/>
    </contour>
  </outline>
</glyph>
<glyph name="notequal" format="1">
  <advance width="1351"/>
  <unicode hex="2260"/>
  <outline>
    <contour>
      <point x="440" y="46" type="line"/>
      <point x="319" y="64" type="line"/>
      <point x="470" y="325" type="line"/>
      <point x="177" y="325" type="line"/>
      <point x="179" y="445" type="line"/>
      <point x="542" y="445" type="line"/>
      <point x="714" y="728" type="line"/>
      <point x="213" y="728" type="line"/>
      <point x="213" y="849" type="line"/>
      <point x="781" y="849" type="line"/>
      <point x="941" y="1123" type="line"/>
      <point x="1065" y="1105" type="line"/>
      <point x="915" y="849" type="line"/>
      <point x="1225" y="849" type="line"/>
      <point x="1225" y="728" type="line"/>
      <point x="847" y="728" type="line"/>
      <point x="674" y="445" type="line"/>
      <point x="1191" y="445" type="line"/>
      <point x="1189" y="325" type="line"/>
      <point x="604" y="325" type="line"/>
    </contour>
  </outline>
</glyph>
<glyph name="commaaccent" format="1">
  <advance width="540"/>
  <outline>
    <contour>
      <point x="103" y="-594" type="line"/>
      <point x="250" y="-131" type="line"/>
      <point x="437" y="-131" type="line"/>
      <point x="234" y="-594" type="line"/>
    </contour>
  </outline>
</glyph>
